<svg xmlns="http://www.w3.org/2000/svg" width="63.61" height="63.608" viewBox="0 0 63.61 63.608"><defs><style>.a{fill:#e45255;}</style></defs><g transform="translate(0)"><path class="a" d="M234.441,81.3l22.672,37.175L269.1,88.7l-5.878,2.29-7,17.481Z" transform="translate(-223.372 -61.409)"/><path class="a" d="M241.437,74.983l19.008,24.733.4-6.412Z" transform="translate(-228.001 -57.229)"/><path class="a" d="M323.924,84.144l7.253-3.97L310.718,117.73Z" transform="translate(-273.847 -60.664)"/><path class="a" d="M261.422,69.563a30.613,30.613,0,0,0,3.33-18.743C262.459,34.264,247.5,22.658,231.334,24.9s-27.405,17.475-25.112,34.033,17.255,28.163,33.417,25.925a28.952,28.952,0,0,0,16.578-8.273,31.8,31.8,0,1,1,5.206-7.016Z" transform="translate(-201.717 -22.497)"/><path class="a" d="M234.441,81.3l22.178,32.1,9.72-23.618-3.119,1.215-7,17.481Z" transform="translate(-223.372 -61.409)"/><path class="a" d="M241.437,74.983l19.2,21.713-.189,3.019Z" transform="translate(-228.001 -57.229)"/><path class="a" d="M310.718,121.556l16.885-35.6-3.679,2.014Z" transform="translate(-273.847 -64.49)"/></g></svg>