<svg xmlns="http://www.w3.org/2000/svg" width="19.453" height="30" viewBox="0 0 19.453 30"><defs><style>.a{fill:#e45255;}</style></defs><path class="a" d="M9.741,25.2l-5.26-5.56,1.7-1.611,3.553,3.756,3.532-3.753,1.707,1.606Zm9.713-2.235V7.031A7.039,7.039,0,0,0,12.422,0H7.031A7.039,7.039,0,0,0,0,7.031V22.969A7.039,7.039,0,0,0,7.031,30h5.391A7.039,7.039,0,0,0,19.453,22.969ZM12.422,2.344a4.693,4.693,0,0,1,4.688,4.687V22.969a4.693,4.693,0,0,1-4.688,4.688H7.031a4.693,4.693,0,0,1-4.687-4.687V7.031A4.693,4.693,0,0,1,7.031,2.344Zm-2.7,2.4A1.172,1.172,0,1,0,10.9,5.918,1.172,1.172,0,0,0,9.727,4.746Zm0,4.688A1.172,1.172,0,1,0,10.9,10.605,1.172,1.172,0,0,0,9.727,9.434Zm0,4.688A1.172,1.172,0,1,0,10.9,15.293,1.172,1.172,0,0,0,9.727,14.121Zm0,0"/></svg>